<?xml version="1.0" encoding="iso-8859-1"?>
<!-- Generator: Adobe Illustrator 19.0.0, SVG Export Plug-In . SVG Version: 6.00 Build 0)  -->
<svg version="1.1" id="Layer_1" xmlns="http://www.w3.org/2000/svg" xmlns:xlink="http://www.w3.org/1999/xlink" x="0px" y="0px"
	 viewBox="0 0 214.311 214.311" style="enable-background:new 0 0 214.311 214.311;" xml:space="preserve">
<g>
	<g>
		<g>
			<path d="M134.455,0H79.857C56.236,0,37.018,19.228,37.018,42.862v38.966v64.293c0,37.599,30.594,68.19,68.197,68.19h3.881
				c37.603,0,68.197-30.59,68.197-68.19V81.828V42.862C177.294,19.228,158.076,0,134.455,0z M44.811,42.862
				c0-19.338,15.721-35.069,35.046-35.069h54.597c19.325,0,35.046,15.731,35.046,35.069v35.069H44.811V42.862z M169.501,146.121
				c0,33.303-27.097,60.397-60.404,60.397h-3.881c-33.307,0-60.404-27.093-60.404-60.397V85.724h124.689V146.121z"/>
			<path d="M107.156,23.379c-2.152,0-3.897,1.743-3.897,3.897v35.286c0,2.154,1.745,3.897,3.897,3.897
				c2.152,0,3.897-1.743,3.897-3.897V27.276C111.053,25.122,109.308,23.379,107.156,23.379z"/>
		</g>
	</g>
</g>
<g>
</g>
<g>
</g>
<g>
</g>
<g>
</g>
<g>
</g>
<g>
</g>
<g>
</g>
<g>
</g>
<g>
</g>
<g>
</g>
<g>
</g>
<g>
</g>
<g>
</g>
<g>
</g>
<g>
</g>
</svg>
